<?xml version="1.0" encoding="UTF-8"?>
<svg version="1.1" xmlns="http://www.w3.org/2000/svg" width="200" height="200">
<path d="M0 0 C66 0 132 0 200 0 C200 66 200 132 200 200 C134 200 68 200 0 200 C0 134 0 68 0 0 Z " fill="#AD282E" transform="translate(0,0)"/>
<path d="M0 0 C66 0 132 0 200 0 C200 66 200 132 200 200 C134 200 68 200 0 200 C0 134 0 68 0 0 Z M29.44921875 38.17578125 C17.9471856 51.43889125 11.75890651 67.05600605 8 84 C7.8249292 84.62898193 7.6498584 85.25796387 7.46948242 85.90600586 C2.24323778 109.21619842 10.68863503 133.37888992 22.9375 152.875 C37.63735002 173.7162968 59.03730962 187.57914559 84.08984375 192.40234375 C109.57897958 195.97375817 134.83562873 189.89084413 155.78515625 175.0234375 C175.39802775 159.80603179 187.41215988 139.30277354 192.61328125 115.15234375 C195.64014589 90.47881079 190.58282118 65.37627687 175.8671875 45.0546875 C159.29199887 24.3212634 138.17003581 11.62157462 112 7 C79.71573405 4.71514127 52.23199445 14.82075372 29.44921875 38.17578125 Z " fill="#FEFCFC" transform="translate(0,0)"/>
<path d="M0 0 C1.2392926 -0.01283524 2.47858521 -0.02567047 3.75543213 -0.03889465 C5.12308348 -0.04707009 6.49073939 -0.05451227 7.85839844 -0.0612793 C8.89180988 -0.06739259 8.89180988 -0.06739259 9.94609833 -0.07362938 C13.60501305 -0.09453684 17.26388994 -0.10880821 20.92285156 -0.11816406 C24.67157063 -0.12913229 28.41968011 -0.16340428 32.16818619 -0.20333576 C35.07335357 -0.22974617 37.97838255 -0.23787809 40.88365936 -0.24144554 C42.26291691 -0.24626287 43.64217037 -0.25773493 45.0213089 -0.27648354 C55.99359843 -0.41615772 68.34831152 0.3156492 76.71777344 8.30200195 C77.47058594 8.98520508 78.22339844 9.6684082 78.99902344 10.37231445 C86.42276859 19.75655568 86.9047538 28.40977114 86.70605469 39.90356445 C86.69671106 41.50351854 86.68960229 43.10348709 86.68461609 44.70346069 C86.66566771 48.88275743 86.61667531 53.06116365 86.56109619 57.2401123 C86.50056636 62.27115988 86.47792933 67.30250785 86.44882965 72.33381653 C86.40059969 79.94882805 86.30470392 87.56189172 86.21777344 95.17700195 C73.67777344 95.17700195 61.13777344 95.17700195 48.21777344 95.17700195 C48.21777344 79.99700195 48.21777344 64.81700195 48.21777344 49.17700195 C39.86165855 55.86189387 34.65997758 65.53453003 33.21777344 76.17700195 C32.9662697 79.86454888 32.82745736 83.55751723 32.70019531 87.2512207 C32.4342985 92.9604769 32.4342985 92.9604769 30.21777344 95.17700195 C27.5885804 95.38888176 25.06730928 95.48098449 22.43652344 95.4777832 C21.28259094 95.48421089 21.28259094 95.48421089 20.10534668 95.49076843 C18.47795598 95.49651452 16.8505396 95.49700994 15.22314453 95.49267578 C12.72742131 95.48951418 10.23288136 95.51297553 7.73730469 95.53833008 C6.15787911 95.54060282 4.57845032 95.54130668 2.99902344 95.5402832 C1.87554504 95.55409782 1.87554504 95.55409782 0.72937012 95.56819153 C-1.37402344 95.54931641 -1.37402344 95.54931641 -4.78222656 95.17700195 C-8.09001944 90.21531264 -7.11499422 84.25550429 -7.09790039 78.44360352 C-7.09473773 76.18497597 -7.1182146 73.92765532 -7.14355469 71.66918945 C-7.1458275 70.23429527 -7.14653126 68.79939757 -7.14550781 67.36450195 C-7.14848877 66.05868164 -7.15146973 64.75286133 -7.15454102 63.4074707 C-6.78222656 60.17700195 -6.78222656 60.17700195 -5.46801758 58.25097656 C-2.68320671 56.47684434 0.39068333 56.77441746 3.59277344 56.73950195 C14.82851935 56.30535018 25.56711831 53.78011681 34.21777344 46.17700195 C35.86777344 44.19700195 37.51777344 42.21700195 39.21777344 40.17700195 C24.03777344 39.84700195 8.85777344 39.51700195 -6.78222656 39.17700195 C-6.80285156 32.92762695 -6.82347656 26.67825195 -6.84472656 20.23950195 C-6.85383057 18.26473877 -6.86293457 16.28997559 -6.87231445 14.25537109 C-6.87523361 12.69930082 -6.87778217 11.14322979 -6.87988281 9.5871582 C-6.88499878 8.77178589 -6.89011475 7.95641357 -6.89538574 7.11633301 C-6.89569596 5.13619672 -6.84460753 3.15615542 -6.78222656 1.17700195 C-5.00460624 -0.60061837 -2.40662252 0.02162558 0 0 Z " fill="#FEFCFC" transform="translate(59.7822265625,51.822998046875)"/>
<path d="M0 0 C1.70209877 0.00333092 1.70209877 0.00333092 3.43858337 0.00672913 C4.71983597 0.00680466 6.00108856 0.00688019 7.32116699 0.00695801 C8.73001646 0.01206542 10.13886554 0.01728143 11.54771423 0.02259827 C12.98118033 0.02446249 14.41464706 0.02588637 15.84811401 0.02688599 C19.62765755 0.03071079 23.40716288 0.04054075 27.18669128 0.05158997 C31.04075097 0.06180489 34.8948168 0.06638378 38.74888611 0.07142639 C46.31596085 0.08216306 53.88300407 0.09923903 61.45005798 0.12025452 C61.45005798 0.45025452 61.45005798 0.78025452 61.45005798 1.12025452 C58.15005798 1.12025452 54.85005798 1.12025452 51.45005798 1.12025452 C51.50226501 3.22013733 51.50226501 3.22013733 51.55552673 5.36244202 C51.58369061 7.24003406 51.61098796 9.11763924 51.63755798 10.99525452 C51.6626947 11.91306702 51.68783142 12.83087952 51.71372986 13.77650452 C51.81925347 23.76607355 49.41832137 30.42579359 44.45005798 39.12025452 C28.61005798 39.12025452 12.77005798 39.12025452 -3.54994202 39.12025452 C-3.57056702 32.87087952 -3.59119202 26.62150452 -3.61244202 20.18275452 C-3.62154602 18.20799133 -3.63065002 16.23322815 -3.64002991 14.19862366 C-3.64294907 12.64255339 -3.64549762 11.08648236 -3.64759827 9.53041077 C-3.65271423 8.71503845 -3.6578302 7.89966614 -3.6631012 7.05958557 C-3.66341142 5.07944928 -3.61232298 3.09940798 -3.54994202 1.12025452 C-2.54994202 0.12025452 -2.54994202 0.12025452 0 0 Z " fill="#F2DBD5" transform="translate(56.54994201660156,51.87974548339844)"/>
<path d="M0 0 C0.66 0 1.32 0 2 0 C2 15.18 2 30.36 2 46 C1.67 46 1.34 46 1 46 C0.505 28.675 0.505 28.675 0 11 C-1.98 10.67 -3.96 10.34 -6 10 C-6 11.65 -6 13.3 -6 15 C-6.64364502 15.19134521 -7.28729004 15.38269043 -7.95043945 15.57983398 C-10.32973427 16.88084555 -10.32973427 16.88084555 -10.62182617 19.96508789 C-10.67830322 21.20508545 -10.73478027 22.44508301 -10.79296875 23.72265625 C-10.82932938 24.38333603 -10.86569 25.04401581 -10.90315247 25.72471619 C-11.01612353 27.83685232 -11.10275112 29.9490597 -11.1875 32.0625 C-11.28798668 34.17895578 -11.39384636 36.29502066 -11.50398254 38.41099548 C-11.60131287 40.3282902 -11.68415907 42.24630361 -11.76635742 44.16430664 C-12 47 -12 47 -13 48 C-15.66832963 48.01696174 -18.30742795 47.97101299 -20.97265625 47.87890625 C-22.16912025 47.84348976 -22.16912025 47.84348976 -23.38975525 47.80735779 C-25.94750973 47.7305374 -28.50497527 47.64659285 -31.0625 47.5625 C-32.79230338 47.50929767 -34.52212103 47.45655717 -36.25195312 47.40429688 C-40.50148644 47.27489758 -44.75077382 47.13910688 -49 47 C-49 46.67 -49 46.34 -49 46 C-47.50835327 45.96241577 -47.50835327 45.96241577 -45.98657227 45.92407227 C-42.30951253 45.83015118 -38.6326485 45.72989381 -34.95581055 45.62768555 C-33.362107 45.58427854 -31.7683552 45.54260781 -30.17456055 45.50268555 C-27.88836092 45.44512193 -25.60240551 45.38138851 -23.31640625 45.31640625 C-22.2413961 45.29133751 -22.2413961 45.29133751 -21.14466858 45.26576233 C-17.78472618 45.44981346 -17.78472618 45.44981346 -15 44 C-14.81227416 41.33012142 -14.67395114 38.673143 -14.5625 36 C-13.79572041 21.66403954 -10.33827094 10.57323164 0 0 Z " fill="#B44D51" transform="translate(106,101)"/>
<path d="M0 0 C21.12 0 42.24 0 64 0 C64 0.33 64 0.66 64 1 C60.7 1 57.4 1 54 1 C54.02320313 2.44632813 54.04640625 3.89265625 54.0703125 5.3828125 C54.08907777 7.29686982 54.10727716 9.21093274 54.125 11.125 C54.14175781 12.07632813 54.15851563 13.02765625 54.17578125 14.0078125 C54.21104528 19.08583255 54.03333617 23.24487525 52 28 C51.67 28 51.34 28 51 28 C51 19.75 51 11.5 51 3 C50.01 3.33 49.02 3.66 48 4 C48 3.34 48 2.68 48 2 C47.38125 2.185625 46.7625 2.37125 46.125 2.5625 C44 3 44 3 42 2 C40.64247704 1.88295036 39.27974112 1.82322811 37.91748047 1.79467773 C37.07675995 1.77473251 36.23603943 1.75478729 35.36984253 1.73423767 C34.00727829 1.70916893 34.00727829 1.70916893 32.6171875 1.68359375 C31.68778351 1.66281265 30.75837952 1.64203156 29.80081177 1.62062073 C26.8256179 1.55512354 23.85033423 1.49623948 20.875 1.4375 C18.86066772 1.39431494 16.84634459 1.35070066 14.83203125 1.30664062 C9.88811337 1.19944197 4.94410497 1.09817499 0 1 C0 0.67 0 0.34 0 0 Z " fill="#CA8983" transform="translate(54,52)"/>
<path d="M0 0 C15.51 0 31.02 0 47 0 C44.39056587 4.34905688 42.91131361 6.14579818 39 9 C39 7.68 39 6.36 39 5 C39.99 5 40.98 5 42 5 C42 4.01 42 3.02 42 2 C28.14 2 14.28 2 0 2 C0 1.34 0 0.68 0 0 Z " fill="#992F35" transform="translate(53,91)"/>
<path d="M0 0 C0.66 0.33 1.32 0.66 2 1 C1.690625 1.495 1.38125 1.99 1.0625 2.5 C-1.96476449 9.62297526 -1.31334238 18.56020561 -1.60546875 26.19335938 C-1.64285156 27.05638672 -1.68023437 27.91941406 -1.71875 28.80859375 C-1.74904297 29.59032959 -1.77933594 30.37206543 -1.81054688 31.17749023 C-2 33 -2 33 -3 34 C-5.66832963 34.01696174 -8.30742795 33.97101299 -10.97265625 33.87890625 C-12.16912025 33.84348976 -12.16912025 33.84348976 -13.38975525 33.80735779 C-15.94750973 33.7305374 -18.50497527 33.64659285 -21.0625 33.5625 C-22.79230338 33.50929767 -24.52212103 33.45655717 -26.25195312 33.40429688 C-30.50148644 33.27489758 -34.75077382 33.13910688 -39 33 C-39 32.67 -39 32.34 -39 32 C-37.50835327 31.96241577 -37.50835327 31.96241577 -35.98657227 31.92407227 C-32.30951253 31.83015118 -28.6326485 31.72989381 -24.95581055 31.62768555 C-23.362107 31.58427854 -21.7683552 31.54260781 -20.17456055 31.50268555 C-17.88836092 31.44512193 -15.60240551 31.38138851 -13.31640625 31.31640625 C-12.2413961 31.29133751 -12.2413961 31.29133751 -11.14466858 31.26576233 C-7.78472618 31.44981346 -7.78472618 31.44981346 -5 30 C-4.81227228 27.33009461 -4.67291253 24.67321929 -4.5625 22 C-4.17395501 14.24283255 -3.6963772 7.00610407 0 0 Z " fill="#AF5558" transform="translate(96,115)"/>
<path d="M0 0 C-8.07269173 2.97196699 -15.23300598 4.48204912 -23.79296875 4.67163086 C-27.84322751 4.65434081 -27.84322751 4.65434081 -31 7 C-31.29600205 10.25603158 -31.29600205 10.25603158 -31.23046875 14.08984375 C-31.23001053 14.79017227 -31.22955231 15.49050079 -31.2290802 16.21205139 C-31.22605786 17.69403781 -31.21817207 19.17602104 -31.20581055 20.65795898 C-31.18759975 22.92508218 -31.18530058 25.1917958 -31.18554688 27.45898438 C-31.37299848 34.8371065 -31.37299848 34.8371065 -30 42 C-29.34 42.33 -28.68 42.66 -28 43 C-28.99 43 -29.98 43 -31 43 C-31 42.34 -31 41.68 -31 41 C-31.66 41 -32.32 41 -33 41 C-33.07413521 35.92801112 -33.12859451 30.85633732 -33.16479492 25.78393555 C-33.17988516 24.05829373 -33.20035975 22.33269028 -33.22631836 20.60717773 C-33.26269209 18.12734512 -33.27972359 15.64801936 -33.29296875 13.16796875 C-33.30845261 12.39599655 -33.32393646 11.62402435 -33.33988953 10.82865906 C-33.34154853 5.55337266 -33.34154853 5.55337266 -31.77612305 3.01708984 C-29.49813834 1.7126109 -27.91143003 1.60098827 -25.2890625 1.55859375 C-24.37382813 1.53216797 -23.45859375 1.50574219 -22.515625 1.47851562 C-21.08476563 1.45821289 -21.08476563 1.45821289 -19.625 1.4375 C-13.59863148 1.3266608 -5.26214359 -1.94894207 0 0 Z " fill="#9D3339" transform="translate(85,105)"/>
<path d="M0 0 C0.66 0 1.32 0 2 0 C3.32136034 7.8658757 3.02805104 15.71284977 2.87890625 23.65625 C2.85456656 25.1693851 2.83072502 26.68252828 2.80735779 28.19567871 C2.74489934 32.15439149 2.67572706 36.11295882 2.60510254 40.0715332 C2.53407092 44.1205388 2.4694633 48.16964651 2.40429688 52.21875 C2.2757784 60.1459465 2.14015901 68.0730008 2 76 C1.67 76 1.34 76 1 76 C0.98969254 75.14888641 0.97938507 74.29777283 0.96876526 73.42086792 C0.87066039 65.38765651 0.76812783 57.35451632 0.66066074 49.32142448 C0.60557022 45.19184821 0.55217302 41.06226471 0.50268555 36.93261719 C0.45483662 32.94495869 0.40248755 28.95738202 0.34705925 24.96982193 C0.32672836 23.45086844 0.30800052 21.9318926 0.29092598 20.41289902 C0.26667552 18.28022973 0.2366511 16.14771219 0.20532227 14.01513672 C0.18977798 12.8026828 0.1742337 11.59022888 0.15821838 10.34103394 C0.06665404 6.97940889 0.06665404 6.97940889 -0.57533264 3.62405396 C-0.71547287 2.75811615 -0.8556131 1.89217834 -1 1 C-0.67 0.67 -0.34 0.34 0 0 Z " fill="#9E2E35" transform="translate(146,72)"/>
<path d="M0 0 C1.06460449 0.0014502 2.12920898 0.00290039 3.22607422 0.00439453 C4.84811768 0.00463623 4.84811768 0.00463623 6.50292969 0.00488281 C17.83092609 0.16481143 27.40574378 2.77093958 38.10107422 6.37939453 C34.28350598 7.7537191 31.02852093 7.05914492 27.10107422 6.37939453 C27.10107422 5.71939453 27.10107422 5.05939453 27.10107422 4.37939453 C19.46003921 3.21959457 11.8180914 3.04742247 4.10107422 2.81689453 C2.74038633 2.77361318 1.37970907 2.72999614 0.01904297 2.68603516 C-3.28685735 2.5805277 -6.59282577 2.47841197 -9.89892578 2.37939453 C-6.90495095 -0.6145803 -4.09964362 0.05906885 0 0 Z " fill="#A24248" transform="translate(95.89892578125,6.62060546875)"/>
<path d="M0 0 C-2.25 2.5625 -2.25 2.5625 -5 5 C-7.3125 4.8125 -7.3125 4.8125 -9 4 C-9 4.66 -9 5.32 -9 6 C-9.99 6 -10.98 6 -12 6 C-12.33 6.99 -12.66 7.98 -13 9 C-14.65 8.67 -16.3 8.34 -18 8 C-13.49618278 3.9465645 -6.17442056 -2.05814019 0 0 Z " fill="#A7353D" transform="translate(66,15)"/>
<path d="M0 0 C0.99 0.66 1.98 1.32 3 2 C2.34 4.31 1.68 6.62 1 9 C1.66 9.33 2.32 9.66 3 10 C4.1875 11.875 4.1875 11.875 5 14 C4.67 14.99 4.34 15.98 4 17 C0.04 10.07 0.04 10.07 -4 3 C-2.68 2.67 -1.36 2.34 0 2 C0 1.34 0 0.68 0 0 Z " fill="#A53238" transform="translate(19,136)"/>
<path d="M0 0 C0 3.67718093 -0.82184858 5.07076189 -3 8 C-5.625 9.1875 -5.625 9.1875 -8 10 C-8.33 10.66 -8.66 11.32 -9 12 C-9.66 12 -10.32 12 -11 12 C-11 12.66 -11 13.32 -11 14 C-11.99 14 -12.98 14 -14 14 C-14.33 14.66 -14.66 15.32 -15 16 C-15.33 15.34 -15.66 14.68 -16 14 C-12.30268562 10.0641492 -8.29057073 6.81184437 -3.98828125 3.55078125 C-1.92545619 2.00724714 -1.92545619 2.00724714 0 0 Z " fill="#FCEAE9" transform="translate(165,166)"/>
<path d="M0 0 C1.134375 0.020625 2.26875 0.04125 3.4375 0.0625 C4.0975 1.3825 4.7575 2.7025 5.4375 4.0625 C3.4575 4.3925 1.4775 4.7225 -0.5625 5.0625 C-0.8925 4.4025 -1.2225 3.7425 -1.5625 3.0625 C-2.2225 5.0425 -2.8825 7.0225 -3.5625 9.0625 C-5.2125 8.7325 -6.8625 8.4025 -8.5625 8.0625 C-7.2425 7.4025 -5.9225 6.7425 -4.5625 6.0625 C-4.583125 5.258125 -4.60375 4.45375 -4.625 3.625 C-4.52750049 -0.37247981 -4.13731851 0.07258454 0 0 Z " fill="#B1292E" transform="translate(148.5625,52.9375)"/>
<path d="M0 0 C1 3 1 3 0.22265625 4.82421875 C-0.8515625 6.54947917 -1.92578125 8.27473958 -3 10 C-7.29 10 -11.58 10 -16 10 C-13 8 -13 8 -9.4375 7.5 C-5.9428808 7.34152243 -5.9428808 7.34152243 -4 5 C-3.34 4.67 -2.68 4.34 -2 4 C-0.86649466 1.98330173 -0.86649466 1.98330173 0 0 Z " fill="#EFACA4" transform="translate(104,81)"/>
<path d="M0 0 C0 4.05480631 -1.54870092 5.84832975 -4 9 C-4.99 9 -5.98 9 -7 9 C-7.268125 9.969375 -7.53625 10.93875 -7.8125 11.9375 C-8.204375 12.948125 -8.59625 13.95875 -9 15 C-9.99 15.33 -10.98 15.66 -12 16 C-10.58794973 11.70983633 -8.50383651 9.03782149 -5.4375 5.75 C-4.22900391 4.44289063 -4.22900391 4.44289063 -2.99609375 3.109375 C-1 1 -1 1 0 0 Z " fill="#A43D43" transform="translate(35,33)"/>
<path d="M0 0 C7.92 0 15.84 0 24 0 C24 0.33 24 0.66 24 1 C23.37955811 1.01981934 22.75911621 1.03963867 22.11987305 1.06005859 C19.30865463 1.15531845 16.49817834 1.26499302 13.6875 1.375 C12.71103516 1.4059375 11.73457031 1.436875 10.72851562 1.46875 C9.32182617 1.52675781 9.32182617 1.52675781 7.88671875 1.5859375 C7.02264404 1.6173584 6.15856934 1.6487793 5.26831055 1.68115234 C2.72257555 1.87188037 2.72257555 1.87188037 0 4 C0 2.68 0 1.36 0 0 Z " fill="#FEF3F3" transform="translate(54,53)"/>
<path d="M0 0 C1.32 0.33 2.64 0.66 4 1 C1.36 3.64 -1.28 6.28 -4 9 C-5 6 -5 6 -4 3 C-1.9375 2.3125 -1.9375 2.3125 0 2 C0 1.34 0 0.68 0 0 Z " fill="#A3323C" transform="translate(166,161)"/>
<path d="M0 0 C-3.96 1.98 -7.92 3.96 -12 6 C-11.67 4.35 -11.34 2.7 -11 1 C-9.66666667 0.66666667 -8.33333333 0.33333333 -7 0 C-6.319375 -0.20625 -5.63875 -0.4125 -4.9375 -0.625 C-3 -1 -3 -1 0 0 Z " fill="#A3363E" transform="translate(150,179)"/>
<path d="M0 0 C-0.33 1.32 -0.66 2.64 -1 4 C-1.99 4 -2.98 4 -4 4 C-4.66 5.32 -5.32 6.64 -6 8 C-7.32 7.67 -8.64 7.34 -10 7 C-8.71372289 5.82739389 -7.42080217 4.6620717 -6.125 3.5 C-5.04605469 2.52546875 -5.04605469 2.52546875 -3.9453125 1.53125 C-2 0 -2 0 0 0 Z " fill="#A5373E" transform="translate(46,25)"/>
<path d="M0 0 C0.66 1.32 1.32 2.64 2 4 C1.01 5.32 0.02 6.64 -1 8 C-2.5625 6.75 -2.5625 6.75 -4 5 C-3.6875 2.8125 -3.6875 2.8125 -3 1 C-2.01 1.33 -1.02 1.66 0 2 C0 1.34 0 0.68 0 0 Z " fill="#A72E32" transform="translate(37,160)"/>
<path d="M0 0 C0.33 0 0.66 0 1 0 C1 1.65 1 3.3 1 5 C0.01 5.495 0.01 5.495 -1 6 C-1.042721 4.33388095 -1.04063832 2.66617115 -1 1 C-0.67 0.67 -0.34 0.34 0 0 Z M-2 6 C-1.01 6.33 -0.02 6.66 1 7 C0.67 8.32 0.34 9.64 0 11 C-0.99 10.67 -1.98 10.34 -3 10 C-2.67 8.68 -2.34 7.36 -2 6 Z " fill="#E3A79A" transform="translate(99,75)"/>
<path d="M0 0 C1.96035175 0.44962196 3.91824309 0.90998248 5.875 1.375 C7.51082031 1.75785156 7.51082031 1.75785156 9.1796875 2.1484375 C12 3 12 3 14 5 C10.37 4.67 6.74 4.34 3 4 C3 3.34 3 2.68 3 2 C2.01 1.67 1.02 1.34 0 1 C0 0.67 0 0.34 0 0 Z " fill="#A43B43" transform="translate(120,9)"/>
<path d="M0 0 C1.32 0.33 2.64 0.66 4 1 C2.02 3.31 0.04 5.62 -2 8 C-2.33 6.68 -2.66 5.36 -3 4 C-2.01 4 -1.02 4 0 4 C0 2.68 0 1.36 0 0 Z " fill="#A53E43" transform="translate(95,92)"/>
<path d="M0 0 C2.125 0.9375 2.125 0.9375 4 2 C4 3.98 4 5.96 4 8 C-0.875 3.25 -0.875 3.25 -2 1 C-1.34 0.67 -0.68 0.34 0 0 Z " fill="#FCEFF0" transform="translate(170,35)"/>
<path d="M0 0 C1.65 0 3.3 0 5 0 C5.66 1.32 6.32 2.64 7 4 C5.02 4.33 3.04 4.66 1 5 C0.67 3.35 0.34 1.7 0 0 Z " fill="#D06363" transform="translate(147,53)"/>
<path d="M0 0 C0.33 0.99 0.66 1.98 1 3 C-0.9375 6.1875 -0.9375 6.1875 -3 9 C-3.66 8.67 -4.32 8.34 -5 8 C-4.67 7.01 -4.34 6.02 -4 5 C-3.34 4.67 -2.68 4.34 -2 4 C-0.86649466 1.98330173 -0.86649466 1.98330173 0 0 Z " fill="#D5A9A0" transform="translate(104,81)"/>
<path d="M0 0 C3.057952 1.73559438 5.63379989 3.38472619 8 6 C6.35 6 4.7 6 3 6 C3 5.34 3 4.68 3 4 C2.34 4 1.68 4 1 4 C0.67 2.68 0.34 1.36 0 0 Z " fill="#A83E45" transform="translate(152,23)"/>
<path d="M0 0 C2.15377564 2.62198774 3.40072174 4.64404172 4 8 C2.68 7.34 1.36 6.68 0 6 C0 4.02 0 2.04 0 0 Z " fill="#A3353C" transform="translate(181,55)"/>
<path d="M0 0 C2.31 1.98 4.62 3.96 7 6 C5 7 5 7 2.9375 6.375 C1 5 1 5 0.25 2.375 C0.1675 1.59125 0.085 0.8075 0 0 Z " fill="#A0353A" transform="translate(162,31)"/>
<path d="M0 0 C0.66 0 1.32 0 2 0 C2 1.98 2 3.96 2 6 C1.67 5.01 1.34 4.02 1 3 C0.01 3.99 -0.98 4.98 -2 6 C-2.66 5.67 -3.32 5.34 -4 5 C-2.71937515 3.2925002 -1.38232443 1.62626404 0 0 Z " fill="#A03E44" transform="translate(105,102)"/>
<path d="M0 0 C2.31 0 4.62 0 7 0 C7 0.66 7 1.32 7 2 C7.66 2.33 8.32 2.66 9 3 C2.84765625 2.4140625 2.84765625 2.4140625 1 2 C0.67 1.34 0.34 0.68 0 0 Z " fill="#A53F42" transform="translate(117,51)"/>
<path d="M0 0 C5.75 1.75 5.75 1.75 8 4 C7.01 4.495 7.01 4.495 6 5 C3.96855359 4.06553465 1.96466413 3.06775224 0 2 C0 1.34 0 0.68 0 0 Z " fill="#A03C40" transform="translate(139,16)"/>
</svg>
